<?xml version="1.0" encoding="UTF-8"?>
<svg id="_Слой_1" data-name="Слой 1" xmlns="http://www.w3.org/2000/svg" viewBox="0 0 552.49 612.59">
  <defs>
    <style>
      .cls-1 {
        fill: #282828;
        font-family: Bahnschrift-Condensed, Bahnschrift;
        font-size: 218.3px;
        font-variation-settings: 'wght' 400, 'wdth' 75;
      }

      .cls-2 {
        fill: none;
        stroke: #7ac943;
        stroke-linecap: round;
        stroke-miterlimit: 10;
        stroke-width: 18.19px;
      }

      .cls-3 {
        letter-spacing: -.01em;
      }

      .cls-4 {
        fill: #ff931e;
      }

      .cls-4, .cls-5 {
        stroke-width: 0px;
      }

      .cls-6 {
        letter-spacing: 0em;
      }

      .cls-5 {
        fill: #7ac943;
      }

      .cls-7 {
        letter-spacing: -.04em;
      }
    </style>
  </defs>
  <g>
    <g>
      <path class="cls-4" d="m323.77,136.33c-19.92-32.79-59.62-51.26-97.02-41.84-43.09,10.21-70.4,52.9-64.79,96.44.68,5.53,1.8,11.08,3.39,16.6-6.15-9.7-9.97-21.1-11.25-32.91-4.27-36.78,17.91-73.91,51.8-88.71,45.45-20.96,103.37,1.65,117.87,50.42h0Z"/>
      <path class="cls-4" d="m211.49,239.98l4.27-42.54c.46-4.59-4.22-7.96-8.43-6.06l-1.6.72c-4.5-20.26,5.66-41.63,25.32-50.47,18.09-8.13,38.78-3.2,51.45,10.74,5.62,6.18,14.1,8.81,21.72,5.38,11.07-4.97,14.37-19.33,6.41-28.5-22.85-26.31-61.12-35.82-94.5-20.82-37.97,17.07-56.01,59.87-43.58,98.61l-4.2,1.89c-4.21,1.9-4.78,7.64-1.04,10.33l34.71,24.97c3.75,2.7,9.01.32,9.47-4.27Z"/>
    </g>
    <g>
      <path class="cls-5" d="m228.72,192.27c19.92,32.79,59.62,51.26,97.02,41.84,43.09-10.21,70.4-52.9,64.79-96.44-.68-5.53-1.8-11.08-3.39-16.6,6.15,9.7,9.97,21.1,11.25,32.91,4.27,36.78-17.91,73.91-51.8,88.71-45.45,20.96-103.37-1.65-117.87-50.42h0Z"/>
      <path class="cls-5" d="m380.97,120.34l2.51-1.13c4.21-1.9,4.78-7.64,1.04-10.33l-34.71-24.97c-3.75-2.7-9.01-.32-9.47,4.27l-4.27,42.54c-.46,4.59,4.22,7.96,8.43,6.06l3.3-1.49c4.93,20.48-5.17,42.27-25.07,51.22-18.09,8.13-38.78,3.2-51.45-10.74-5.62-6.18-14.1-8.81-21.72-5.38-11.07,4.97-14.37,19.33-6.41,28.5,22.85,26.31,61.12,35.82,94.5,20.82,38.21-17.17,56.23-60.42,43.33-99.36Z"/>
    </g>
  </g>
  <circle class="cls-2" cx="276.24" cy="164.08" r="141.76"/>
  <text class="cls-1" transform="translate(5.83 531.21)"><tspan x="0" y="0">RE</tspan><tspan class="cls-3" x="181.1" y="0">B</tspan><tspan class="cls-7" x="269.46" y="0">A</tspan><tspan class="cls-6" x="357.5" y="0">C</tspan><tspan x="446.61" y="0">K</tspan></text>
</svg>